
<svg version="1.1" id="Capa_1" xmlns="http://www.w3.org/2000/svg" xmlns:xlink="http://www.w3.org/1999/xlink" x="0px" y="0px"
	 viewBox="0 0 380 380" style="enable-background:new 0 0 380 380;" xml:space="preserve">
<path d="M266,104V11H113v93H0v7.5v1.05V369h380V112.55v-1.05V104H266z M229.669,209L190,169.331L150.331,209H111.45
	c-51.015,0-92.899-39.814-96.229-90h349.558c-3.331,50.186-45.215,90-96.229,90H229.669z M215.456,216L190,241.456L164.544,216
	L190,190.544L215.456,216z M128,26h123v78H128V26z M365,354H15V168.34C34.308,201.591,70.31,224,111.45,224h39.881L190,262.669
	L228.669,224h39.881c41.14,0,77.142-22.409,96.45-55.66V354z"/>
</svg>
